<svg xmlns="http://www.w3.org/2000/svg" width="479" height="695.3" viewBox="0 0 479 695.3">
  <g id="GREENYlogo" transform="translate(-720.1 -192)">
    <path id="Path_1" data-name="Path 1" d="M720.1,403.4V192H949.2v52.9H773V350.6H896.4V324.2H825.8V271.3H949.2V403.4Z" fill="#231f20"/>
    <path id="Path_2" data-name="Path 2" d="M1199.1,192V299.8l-15.5,15.5,15.5,15.5v72.6h-52.9V352.6l-10.9-10.9H1022.8v61.7H969.9V192Zm-52.9,85.9V244.8H1022.8v44h112.5Z" fill="#231f20"/>
    <path id="Path_3" data-name="Path 3" d="M949.3,592.5v52.9H720.1V433.9H949.2v52.9H773v26.4H949.3V566H773v26.4H949.3Z" fill="#231f20"/>
    <path id="Path_4" data-name="Path 4" d="M1199.1,592.5v52.9H969.9V433.9h229.2v52.9H1022.8v26.4h176.3V566H1022.8v26.4h176.3Z" fill="#231f20"/>
    <path id="Path_5" data-name="Path 5" d="M773,757.2V887.3H720.1V675.8h46.2L896.4,805.7V675.8h52.9V887.2H903Z" fill="#231f20"/>
    <path id="Path_6" data-name="Path 6" d="M1146.2,675.8h52.9V834.4H1111v52.9h-52.9V834.4H969.9V675.8h52.9V781.5h123.4Z" fill="#231f20"/>
  </g>
</svg>
